<svg id="wave" style="transform:rotate(0deg); transition: 0.3s" viewBox="0 0 1440 200" version="1.1" xmlns="http://www.w3.org/2000/svg"><defs><linearGradient id="sw-gradient-0" x1="0" x2="0" y1="1" y2="0"><stop stop-color="rgba(242, 242, 242, 1)" offset="0%"></stop><stop stop-color="rgba(242, 242, 242, 1)" offset="100%"></stop></linearGradient></defs><path style="transform:translate(0, 0px); opacity:1" fill="url(#sw-gradient-0)" d="M0,140L48,136.7C96,133,192,127,288,103.3C384,80,480,40,576,46.7C672,53,768,107,864,120C960,133,1056,107,1152,80C1248,53,1344,27,1440,20C1536,13,1632,27,1728,50C1824,73,1920,107,2016,110C2112,113,2208,87,2304,63.3C2400,40,2496,20,2592,13.3C2688,7,2784,13,2880,23.3C2976,33,3072,47,3168,73.3C3264,100,3360,140,3456,130C3552,120,3648,60,3744,30C3840,0,3936,0,4032,10C4128,20,4224,40,4320,60C4416,80,4512,100,4608,110C4704,120,4800,120,4896,123.3C4992,127,5088,133,5184,116.7C5280,100,5376,60,5472,36.7C5568,13,5664,7,5760,10C5856,13,5952,27,6048,46.7C6144,67,6240,93,6336,86.7C6432,80,6528,40,6624,50C6720,60,6816,120,6864,150L6912,180L6912,200L6864,200C6816,200,6720,200,6624,200C6528,200,6432,200,6336,200C6240,200,6144,200,6048,200C5952,200,5856,200,5760,200C5664,200,5568,200,5472,200C5376,200,5280,200,5184,200C5088,200,4992,200,4896,200C4800,200,4704,200,4608,200C4512,200,4416,200,4320,200C4224,200,4128,200,4032,200C3936,200,3840,200,3744,200C3648,200,3552,200,3456,200C3360,200,3264,200,3168,200C3072,200,2976,200,2880,200C2784,200,2688,200,2592,200C2496,200,2400,200,2304,200C2208,200,2112,200,2016,200C1920,200,1824,200,1728,200C1632,200,1536,200,1440,200C1344,200,1248,200,1152,200C1056,200,960,200,864,200C768,200,672,200,576,200C480,200,384,200,288,200C192,200,96,200,48,200L0,200Z"></path></svg>